<svg xmlns="http://www.w3.org/2000/svg" width="16" height="16" viewBox="0 0 16 16" style="fill:@{fill}"><path d="M12.29,1H3.71A2.71,2.71,0,0,0,1,3.71v8.58A2.71,2.71,0,0,0,3.71,15h8.58A2.71,2.71,0,0,0,15,12.29V3.71A2.71,2.71,0,0,0,12.29,1ZM14,12.29A1.71,1.71,0,0,1,12.29,14H3.71A1.71,1.71,0,0,1,2,12.29V3.71A1.71,1.71,0,0,1,3.71,2h8.58A1.71,1.71,0,0,1,14,3.71Z"></path><path d="M11.49,6.08,12,4.92l-1-1-1.15.55a4,4,0,0,0-.82-.34L8.68,3H7.32l-.43,1.2a4,4,0,0,0-.82.34L4.92,4l-1,1,.55,1.15a3.91,3.91,0,0,0-.34.82L3,7.32V8.68l1.2.43a3.94,3.94,0,0,0,.34.82L4,11.08l1,1,1.15-.55a3.88,3.88,0,0,0,.82.34L7.32,13H8.68l.43-1.2a3.92,3.92,0,0,0,.82-.34l1.15.55,1-1-.55-1.15a4,4,0,0,0,.34-.82L13,8.68V7.32l-1.2-.43A4,4,0,0,0,11.49,6.08ZM8,9.85A1.84,1.84,0,1,1,9.84,8,1.85,1.85,0,0,1,8,9.85Z"></path></svg>