<svg xmlns="http://www.w3.org/2000/svg" width="16" height="16" viewBox="0 0 16 16" style="fill:@{fill}"><path d="M5.64 5.88L9.33 5.92 5.18 10.12 5.89 10.82 10.02 6.65 10.02 10.36 11.02 10.36 11.02 4.94 5.65 4.88 5.64 5.88z"></path><path d="M12.29,1H3.71A2.71,2.71,0,0,0,1,3.71v8.58A2.71,2.71,0,0,0,3.71,15h8.58A2.71,2.71,0,0,0,15,12.29V3.71A2.71,2.71,0,0,0,12.29,1ZM14,12.29A1.71,1.71,0,0,1,12.29,14H3.71A1.71,1.71,0,0,1,2,12.29V3.71A1.71,1.71,0,0,1,3.71,2h8.58A1.71,1.71,0,0,1,14,3.71Z"></path></svg>