<svg
    version="1.1"
    xmlns="http://www.w3.org/2000/svg"
    id="${id|'core-svg'}"
    width="${width|'100'}"
    height="${height|'100'}"
    viewBox="0 0 ${box_width} ${box_height}"
    xmlns="http://www.w3.org/2000/svg"
    style="${style}">

        <path
            class="${id|'core-svg'}-top svg-path uk-drag"
            d="m30.254 107.32c0-0.0995-0.05824-0.18434-0.15054-0.22208l-12.602-4.9427c-0.05532-0.0231-0.11822-0.0216-0.17268 0l-12.272 4.9629c-0.08998 0.0345-0.14734 0.12347-0.14996 0.22149 0 0.0963 0.05853 0.18287 0.14822 0.2212l12.117 4.9436c0.02999 0.0108 0.05998 0.017 0.08998 0.017 0.02767 0 0.05736-6e-3 0.08445-0.0155l12.757-4.9629c0.0923-0.0377 0.15054-0.12494 0.15054-0.22296zm-13.62 3.5564-8.662-3.5324 8.662-3.5035zm1.0302 0.10796v-7.3677l9.4322 3.6986z"
            style="fill:${color|'#222'};stroke-width:.29189"/>
        <path
            class="${id|'core-svg'}-left svg-path uk-drag"
            d="m16.732 113.33-12.272-4.9629c-0.07047-0.0301-0.15433-0.0225-0.22043 0.024-0.0661 0.0456-0.10338 0.11791-0.10338 0.19749v14.811c0 0.098 0.05998 0.18287 0.14734 0.22062l12.273 4.9629c0.02825 0.0111 0.05824 0.0178 0.08823 0.0178 0.04688 0 0.09289-0.0146 0.1322-0.04 0.0661-0.0439 0.10366-0.11792 0.10366-0.1975v-14.81c0.0014-0.10065-0.05853-0.18872-0.14822-0.22324zm-1.1464 13.453-8.881-3.5898 8.881-3.9274zm0-8.6452-10.152 4.4901v-12.465l10.152 4.1065z"
            style="fill:${color|'#222'};stroke-width:.29189"/>
        <path
            class="${id|'core-svg'}-right svg-path uk-drag"
            d="m30.269 108.36-12.273 4.9629c-0.08998 0.0345-0.14734 0.12259-0.14734 0.22061v14.811c0 0.0793 0.03902 0.15361 0.10366 0.1975 0.03931 0.0269 0.08445 0.0392 0.1322 0.0392 0.02999 0 0.05998-7e-3 0.08735-0.0169l12.272-4.9629c0.09085-0.0363 0.14909-0.1226 0.14909-0.22149v-14.81c0-0.0793-0.04018-0.15331-0.10424-0.1975-0.06523-0.0448-0.14967-0.0524-0.22043-0.0222zm-11.127 18.416v-7.5096l9.2394 3.7765zm10.155-4.4775-10.153-4.1457v-3.8914l10.153-4.1065z"
            style="fill:${color|'#222'};stroke-width:.29189"/>
        <foreignobject class="node" x="20" y="60" width="100" height="100">
            <div style="margin-top: 50px; font-size: 12px">core</div>
        </foreignobject>

</svg>
