<?xml version="1.0" encoding="UTF-8" standalone="no"?>
<!-- Created with Inkscape (http://www.inkscape.org/) -->

<svg xmlns:svg="http://www.w3.org/2000/svg" xmlns="http://www.w3.org/2000/svg" xmlns:sodipodi="http://sodipodi.sourceforge.net/DTD/sodipodi-0.dtd" xmlns:inkscape="http://www.inkscape.org/namespaces/inkscape" width="100" height="100" viewBox="0 0 100 100" version="1.1" id="core-svg" sodipodi:docname="core-heepp-opt.svg" inkscape:version="0.92.2 (5c3e80d, 2017-08-06)">
    <defs />
    <sodipodi:namedview inkscape:zoom="2" inkscape:cx="4e+001" inkscape:cy="1e+002" inkscape:window-width="1360" inkscape:window-height="715" inkscape:window-y="-8" inkscape:window-maximized="1" inkscape:current-layer="core-svg" inkscape:window-x="-8" />
    <path d="m 48.677786,36.943242 c 4.196938,-0.44654 4.394075,-1.408706 6.794217,-2.081743 C 70.386081,28.994113 85.300171,23.126727 100.21425,17.259343 98.21984,15.91544 93.617255,14.693577 90.588937,13.398053 78.403041,8.843151 66.217149,4.2882487 54.031256,-0.2666483 48.669571,-0.7882673 47.899691,0.8429887 45.538982,1.4071967 30.50572,7.156237 15.019765,12.892872 0.2688879,18.649648 15.392365,24.704188 31.171904,30.719254 46.547772,36.758607 l 0.842329,0.147196 1.287642,0.03744 z M 16.218618,17.446862 C 27.965256,12.988944 39.71192,8.531028 51.458569,4.0731157 62.331444,8.136774 73.20431,12.200436 84.077179,16.264099 61.457652,16.658353 38.838133,17.052606 16.218618,17.446862 Z m -1.180515,1.538164 C 38.72431,18.572181 62.410514,18.159334 86.096719,17.746487 73.781076,22.5925 61.46543,27.43851 49.149789,32.284521 37.779226,27.851357 26.408667,23.418189 15.038107,18.985027 Z" id="path3846" inkscape:connector-curvature="0" style="stroke-width:4.2" />
    <path d="m 98.45041,23.547478 c -15.379279,6.140961 -30.75855,12.281926 -46.137831,18.422888 -1.131964,1.500811 -0.297511,3.83158 -0.553903,5.692128 0,17.186101 0,34.372209 0,51.558319 1.025135,2.009807 3.490556,-0.47563 5.120563,-0.709893 14.077078,-5.62113 28.154157,-11.242259 42.231241,-16.863388 1.14372,-1.497038 0.3022,-3.833843 0.56048,-5.695399 0,-17.184983 0,-34.369959 0,-51.554933 0.0203,-0.617673 -0.66352,-1.10545 -1.22055,-0.849722 z M 56.621276,93.258802 c 0,-9.534902 0,-19.069793 0,-28.6047 11.578153,4.915706 23.156296,9.831412 34.73445,14.747109 -11.578154,4.619204 -23.156297,9.238397 -34.73445,13.857591 z M 94.796334,76.601827 C 82.073146,71.20534 69.349948,65.808861 56.62675,60.412381 c 0,-4.940941 0,-9.881885 0,-14.822825 12.723198,-5.081289 25.446396,-10.162571 38.169584,-15.243857 0,15.418707 0,30.837414 0,46.256128 z" inkscape:connector-curvature="0" style="stroke-width:4.2" id="path3850" />
    <path d="M 47.39523,42.246951 C 32.027802,35.990522 16.660374,29.734087 1.2929458,23.477657 c -2.20227117,0.214926 -0.83719877,3.474425 -1.21639406,5.093208 0,17.252666 0,34.505335 0,51.758 C 1.0270184,81.95972 3.4536672,82.031332 5.0529981,82.963802 19.063284,88.622366 33.026011,94.441777 47.065969,100 c 1.728781,-0.960728 0.529841,-3.691445 0.886029,-5.437766 0,-17.156992 0,-34.313989 0,-51.470985 L 47.801963,42.575311 47.39523,42.246964 Z M 43.088659,93.124988 C 31.968002,88.599569 20.847347,84.074152 9.7266932,79.548733 20.847347,74.597661 31.968002,69.646589 43.088659,64.695519 c 0,9.476492 0,18.952979 0,28.429469 z m 0,-32.695217 C 30.376056,66.09014 17.663454,71.750511 4.9508517,77.410879 c 0,-15.713741 0,-31.427478 0,-47.141219 12.7126023,5.176807 25.4252043,10.353615 38.1378073,15.530421 0,4.876564 0,9.753125 0,14.62969 z" id="path3848" style="stroke-width:4.2" inkscape:connector-curvature="0" />
    <text style="font-style:normal;font-variant:normal;font-weight:normal;font-stretch:normal;font-family:Montserrat;-inkscape-font-specification:Montserrat;stroke-width:1.2" xml:space="default">
        <tspan id="tspan3861">
            <tspan style="font-style:normal;font-variant:normal;font-weight:normal;font-stretch:normal;font-family:Montserrat;-inkscape-font-specification:Montserrat;stroke-width:1.2" id="letter-f" />
        </tspan>
    </text>
    <text xml:space="preserve" style="font-style:normal;font-weight:normal;font-size:55.2px;line-height:1.2;font-family:sans-serif;letter-spacing:0px;word-spacing:0px;fill:#000000;fill-opacity:1;stroke:none;stroke-width:1.4" x="64.945457" y="109.30198" id="text3935" transform="matrix(0.95641886,-0.42473486,0,1.045567,0,0)"><tspan id="letter-g" style="font-style:normal;font-variant:normal;font-weight:normal;font-stretch:normal;font-family:Consolas;-inkscape-font-specification:Consolas;stroke-width:1.4" y="1e+002" x="6e+001" sodipodi:role="line">G</tspan></text>
    <text xml:space="preserve" style="font-style:normal;font-weight:normal;font-size:29.2px;line-height:1.2;font-family:sans-serif;letter-spacing:0px;word-spacing:0px;fill:#000000;fill-opacity:1;stroke:none;stroke-width:0.7" x="41.710892" y="8.9561386" id="text4768" transform="matrix(0.91648856,0.34793623,-1.4636011,0.53547876,0,0)"><tspan sodipodi:role="line" id="letter-x" y="9" style="stroke-width:0.7" x="4e+001">X</tspan></text>
</svg>
