<svg
    id="${id}"
    class="${class}"
    style="${style}"
    width="${width|'100'}"
    height="${height|'100'}"
    version="${version}"
    viewBox="0 0 100 100"
    xmlns="http://www.w3.org/2000/svg">
    <path
        class="svg-path top"
        style="fill:${fill}"
        d="m99.166 19.533c-0.95221-1.6323-3.3972-1.6751-5.0069-2.5935-14.3-5.6464-28.6-11.293-42.9-16.939-3.5159 0.83168-6.8365 2.6833-10.275 3.9193-12.158 4.95-24.315 9.9-36.473 14.85-1.5686 2.1246 2.5573 2.3683 3.8912 3.2751 13.993 5.6975 27.934 11.573 41.96 17.16 16.113-6.1577 32.154-12.572 48.239-18.828l0.41281-0.33613 0.15272-0.50707zm-51.163 13.45c-10.846-4.4531-21.693-8.9062-32.539-13.359 10.846-4.4166 21.693-8.8332 32.539-13.25v26.609zm3.8701 0.40831v-27.864c11.811 4.6626 23.622 9.3253 35.433 13.988-11.811 4.6254-23.622 9.2508-35.433 13.876z"/>
    <path
        class="svg-path left"
        style="fill:${fill}"
        d="m47.395 42.247c-15.367-6.2564-30.735-12.513-46.102-18.769-2.2023 0.21493-0.8372 3.4744-1.2164 5.0932v51.758c0.95047 1.6309 3.3771 1.7025 4.9764 2.6349 14.01 5.6586 27.973 11.478 42.013 17.036 1.7288-0.96073 0.52984-3.6914 0.88603-5.4378v-51.471l-0.15004-0.51594-0.40673-0.32835zm-4.3066 50.878c-11.121-4.5254-22.241-9.0508-33.362-13.576 11.121-4.9511 22.241-9.9021 33.362-14.853v28.429zm0-32.695c-12.713 5.6604-25.425 11.321-38.138 16.981v-47.141c12.713 5.1768 25.425 10.354 38.138 15.53v14.63z"/>
    <path
        class="svg-path right"
        style="fill:${fill}"
        d="m98.721 23.478c-15.368 6.2564-30.736 12.513-46.103 18.769-1.1311 1.5018-0.2973 3.8073-0.5535 5.6573v51.191c1.0244 1.9848 3.488-0.50838 5.1167-0.75785 14.067-5.7268 28.133-11.454 42.2-17.18 1.1429-1.4982 0.30197-3.8096 0.56006-5.6606v-51.187c0.02026-0.61346-0.66303-1.0907-1.2196-0.83102zm-41.798 69.647v-28.401c11.57 4.7607 23.139 9.5215 34.709 14.282-11.57 4.7062-23.139 9.4123-34.709 14.118zm38.147-16.934c-12.714-5.2262-25.427-10.452-38.141-15.679v-14.717c12.714-5.1768 25.427-10.354 38.141-15.53v45.926z"/>
</svg>
