<svg
    style="width: 100%; height: 100%; overflow: hidden;" xmlns="http://www.w3.org/2000/svg"
    xmlns:xlink="http://www.w3.org/1999/xlink"
    version="1.1">
    <defs></defs>
    <g>
        <path
            d="M0 0 L 120 0 120 120 0 120Z"
            stroke="none" fill="none">
        </path>
        <path
            d="M2 2 L 2 6 30 6 30 2Z M34 2 L 34 6 38 6 38 2Z M42 2 L 42 6 46 6 46 2Z M50 2 L 50 6 66 6 66 2Z M74 2 L 74 6 86 6 86 2Z M90 2 L 90 6 118 6 118 2Z M2 6 L 2 10 6 10 6 6Z M26 6 L 26 10 30 10 30 6Z M38 6 L 38 10 58 10 58 6Z M66 6 L 66 10 78 10 78 6Z M82 6 L 82 10 86 10 86 6Z M90 6 L 90 10 94 10 94 6Z M114 6 L 114 10 118 10 118 6Z M2 10 L 2 14 6 14 6 10Z M10 10 L 10 14 22 14 22 10Z M26 10 L 26 14 30 14 30 10Z M34 10 L 34 14 46 14 46 10Z M66 10 L 66 14 70 14 70 10Z M74 10 L 74 14 86 14 86 10Z M90 10 L 90 14 94 14 94 10Z M98 10 L 98 14 110 14 110 10Z M114 10 L 114 14 118 14 118 10Z M2 14 L 2 18 6 18 6 14Z M10 14 L 10 18 22 18 22 14Z M26 14 L 26 18 30 18 30 14Z M34 14 L 34 18 46 18 46 14Z M50 14 L 50 18 54 18 54 14Z M58 14 L 58 18 66 18 66 14Z M70 14 L 70 18 74 18 74 14Z M82 14 L 82 18 86 18 86 14Z M90 14 L 90 18 94 18 94 14Z M98 14 L 98 18 110 18 110 14Z M114 14 L 114 18 118 18 118 14Z M2 18 L 2 22 6 22 6 18Z M10 18 L 10 22 22 22 22 18Z M26 18 L 26 22 30 22 30 18Z M34 18 L 34 22 38 22 38 18Z M46 18 L 46 22 54 22 54 18Z M58 18 L 58 22 62 22 62 18Z M66 18 L 66 22 70 22 70 18Z M78 18 L 78 22 82 22 82 18Z M90 18 L 90 22 94 22 94 18Z M98 18 L 98 22 110 22 110 18Z M114 18 L 114 22 118 22 118 18Z M2 22 L 2 26 6 26 6 22Z M26 22 L 26 26 30 26 30 22Z M42 22 L 42 26 50 26 50 22Z M54 22 L 54 26 58 26 58 22Z M62 22 L 62 26 70 26 70 22Z M74 22 L 74 26 82 26 82 22Z M90 22 L 90 26 94 26 94 22Z M114 22 L 114 26 118 26 118 22Z M2 26 L 2 30 30 30 30 26Z M34 26 L 34 30 38 30 38 26Z M42 26 L 42 30 46 30 46 26Z M50 26 L 50 30 54 30 54 26Z M58 26 L 58 30 62 30 62 26Z M66 26 L 66 30 70 30 70 26Z M74 26 L 74 30 78 30 78 26Z M82 26 L 82 30 86 30 86 26Z M90 26 L 90 30 118 30 118 26Z M42 30 L 42 34 46 34 46 30Z M50 30 L 50 34 54 34 54 30Z M62 30 L 62 34 74 34 74 30Z M82 30 L 82 34 86 34 86 30Z M2 34 L 2 38 18 38 18 34Z M26 34 L 26 38 30 38 30 34Z M34 34 L 34 38 38 38 38 34Z M42 34 L 42 38 58 38 58 34Z M62 34 L 62 38 66 38 66 34Z M70 34 L 70 38 82 38 82 34Z M86 34 L 86 38 90 38 90 34Z M98 34 L 98 38 110 38 110 34Z M114 34 L 114 38 118 38 118 34Z M2 38 L 2 42 10 42 10 38Z M14 38 L 14 42 18 42 18 38Z M22 38 L 22 42 26 42 26 38Z M42 38 L 42 42 46 42 46 38Z M50 38 L 50 42 66 42 66 38Z M74 38 L 74 42 78 42 78 38Z M82 38 L 82 42 86 42 86 38Z M90 38 L 90 42 118 42 118 38Z M2 42 L 2 46 22 46 22 42Z M26 42 L 26 46 34 46 34 42Z M38 42 L 38 46 58 46 58 42Z M66 42 L 66 46 78 46 78 42Z M86 42 L 86 46 90 46 90 42Z M94 42 L 94 46 102 46 102 42Z M106 42 L 106 46 114 46 114 42Z M6 46 L 6 50 22 50 22 46Z M34 46 L 34 50 46 50 46 46Z M66 46 L 66 50 70 50 70 46Z M74 46 L 74 50 86 50 86 46Z M90 46 L 90 50 102 50 102 46Z M110 46 L 110 50 118 50 118 46Z M6 50 L 6 54 14 54 14 50Z M18 50 L 18 54 46 54 46 50Z M50 50 L 50 54 54 54 54 50Z M58 50 L 58 54 66 54 66 50Z M70 50 L 70 54 74 54 74 50Z M102 50 L 102 54 118 54 118 50Z M2 54 L 2 58 6 58 6 54Z M10 54 L 10 58 26 58 26 54Z M34 54 L 34 58 38 58 38 54Z M46 54 L 46 58 54 58 54 54Z M58 54 L 58 58 62 58 62 54Z M66 54 L 66 58 82 58 82 54Z M86 54 L 86 58 94 58 94 54Z M102 54 L 102 58 110 58 110 54Z M114 54 L 114 58 118 58 118 54Z M2 58 L 2 62 30 62 30 58Z M34 58 L 34 62 38 62 38 58Z M42 58 L 42 62 50 62 50 58Z M54 58 L 54 62 58 62 58 58Z M62 58 L 62 62 74 62 74 58Z M78 58 L 78 62 86 62 86 58Z M90 58 L 90 62 98 62 98 58Z M102 58 L 102 62 106 62 106 58Z M110 58 L 110 62 118 62 118 58Z M10 62 L 10 66 22 66 22 62Z M34 62 L 34 66 38 66 38 62Z M42 62 L 42 66 50 66 50 62Z M58 62 L 58 66 62 66 62 62Z M66 62 L 66 66 70 66 70 62Z M74 62 L 74 66 82 66 82 62Z M90 62 L 90 66 106 66 106 62Z M10 66 L 10 70 14 70 14 66Z M18 66 L 18 70 22 70 22 66Z M26 66 L 26 70 46 70 46 66Z M50 66 L 50 70 54 70 54 66Z M58 66 L 58 70 66 70 66 66Z M74 66 L 74 70 78 70 78 66Z M82 66 L 82 70 90 70 90 66Z M94 66 L 94 70 102 70 102 66Z M18 70 L 18 74 26 74 26 70Z M30 70 L 30 74 34 74 34 70Z M42 70 L 42 74 46 74 46 70Z M58 70 L 58 74 62 74 62 70Z M66 70 L 66 74 74 74 74 70Z M82 70 L 82 74 86 74 86 70Z M94 70 L 94 74 98 74 98 70Z M106 70 L 106 74 110 74 110 70Z M2 74 L 2 78 6 78 6 74Z M18 74 L 18 78 46 78 46 74Z M54 74 L 54 78 70 78 70 74Z M74 74 L 74 78 78 78 78 74Z M82 74 L 82 78 86 78 86 74Z M94 74 L 94 78 110 78 110 74Z M22 78 L 22 82 26 82 26 78Z M34 78 L 34 82 38 82 38 78Z M42 78 L 42 82 50 82 50 78Z M54 78 L 54 82 62 82 62 78Z M66 78 L 66 82 78 82 78 78Z M82 78 L 82 82 90 82 90 78Z M94 78 L 94 82 102 82 102 78Z M106 78 L 106 82 114 82 114 78Z M6 82 L 6 86 10 86 10 82Z M14 82 L 14 86 30 86 30 82Z M34 82 L 34 86 46 86 46 82Z M54 82 L 54 86 78 86 78 82Z M82 82 L 82 86 102 86 102 82Z M106 82 L 106 86 114 86 114 82Z M34 86 L 34 90 42 90 42 86Z M66 86 L 66 90 78 90 78 86Z M82 86 L 82 90 86 90 86 86Z M98 86 L 98 90 102 90 102 86Z M106 86 L 106 90 118 90 118 86Z M2 90 L 2 94 30 94 30 90Z M58 90 L 58 94 62 94 62 90Z M66 90 L 66 94 70 94 70 90Z M78 90 L 78 94 86 94 86 90Z M90 90 L 90 94 94 94 94 90Z M98 90 L 98 94 102 94 102 90Z M110 90 L 110 94 114 94 114 90Z M2 94 L 2 98 6 98 6 94Z M26 94 L 26 98 30 98 30 94Z M38 94 L 38 98 42 98 42 94Z M46 94 L 46 98 66 98 66 94Z M74 94 L 74 98 78 98 78 94Z M82 94 L 82 98 86 98 86 94Z M98 94 L 98 98 102 98 102 94Z M114 94 L 114 98 118 98 118 94Z M2 98 L 2 102 6 102 6 98Z M10 98 L 10 102 22 102 22 98Z M26 98 L 26 102 30 102 30 98Z M42 98 L 42 102 50 102 50 98Z M70 98 L 70 102 78 102 78 98Z M82 98 L 82 102 102 102 102 98Z M106 98 L 106 102 114 102 114 98Z M2 102 L 2 106 6 106 6 102Z M10 102 L 10 106 22 106 22 102Z M26 102 L 26 106 30 106 30 102Z M34 102 L 34 106 38 106 38 102Z M46 102 L 46 106 50 106 50 102Z M54 102 L 54 106 58 106 58 102Z M62 102 L 62 106 70 106 70 102Z M86 102 L 86 106 90 106 90 102Z M94 102 L 94 106 102 106 102 102Z M106 102 L 106 106 110 106 110 102Z M114 102 L 114 106 118 106 118 102Z M2 106 L 2 110 6 110 6 106Z M10 106 L 10 110 22 110 22 106Z M26 106 L 26 110 30 110 30 106Z M34 106 L 34 110 38 110 38 106Z M42 106 L 42 110 46 110 46 106Z M50 106 L 50 110 54 110 54 106Z M58 106 L 58 110 62 110 62 106Z M70 106 L 70 110 78 110 78 106Z M86 106 L 86 110 90 110 90 106Z M94 106 L 94 110 98 110 98 106Z M106 106 L 106 110 110 110 110 106Z M114 106 L 114 110 118 110 118 106Z M2 110 L 2 114 6 114 6 110Z M26 110 L 26 114 30 114 30 110Z M34 110 L 34 114 38 114 38 110Z M50 110 L 50 114 58 114 58 110Z M74 110 L 74 114 90 114 90 110Z M98 110 L 98 114 106 114 106 110Z M110 110 L 110 114 114 114 114 110Z M2 114 L 2 118 30 118 30 114Z M34 114 L 34 118 38 118 38 114Z M46 114 L 46 118 50 118 50 114Z M74 114 L 74 118 86 118 86 114Z M90 114 L 90 118 94 118 94 114Z M98 114 L 98 118 102 118 102 114Z M110 114 L 110 118 114 118 114 114Z"
            stroke="none"
            fill="#e15613">
        </path>
    </g>
</svg>
