<svg
    style="width: 100%; height: 100%; overflow: hidden; left: -0.875px; top: 0px;"
    xmlns="http://www.w3.org/2000/svg"
    xmlns:xlink="http://www.w3.org/1999/xlink"
    version="1.1">
    <defs></defs>
    <g>
        <path
            d="M2.5 2.5 L 117.5 2.5 117.5 117.5 2.5 117.5Z"
            stroke="#000000"
            stroke-width="5"
            fill="#fff">

        </path>
        <path
            d="M23 23 L 23 25 37 25 37 23Z M41 23 L 41 25 43 25 43 23Z M47 23 L 47 25 51 25 51 23Z M55 23 L 55 25 57 25 57 23Z M61 23 L 61 25 65 25 65 23Z M67 23 L 67 25 71 25 71 23Z M73 23 L 73 25 77 25 77 23Z M83 23 L 83 25 97 25 97 23Z M23 25 L 23 27 25 27 25 25Z M35 25 L 35 27 37 27 37 25Z M39 25 L 39 27 41 27 41 25Z M45 25 L 45 27 57 27 57 25Z M59 25 L 59 27 61 27 61 25Z M63 25 L 63 27 65 27 65 25Z M67 25 L 67 27 73 27 73 25Z M75 25 L 75 27 77 27 77 25Z M83 25 L 83 27 85 27 85 25Z M95 25 L 95 27 97 27 97 25Z M23 27 L 23 29 25 29 25 27Z M27 27 L 27 29 33 29 33 27Z M35 27 L 35 29 37 29 37 27Z M39 27 L 39 29 41 29 41 27Z M43 27 L 43 29 45 29 45 27Z M65 27 L 65 29 71 29 71 27Z M75 27 L 75 29 77 29 77 27Z M79 27 L 79 29 81 29 81 27Z M83 27 L 83 29 85 29 85 27Z M87 27 L 87 29 93 29 93 27Z M95 27 L 95 29 97 29 97 27Z M23 29 L 23 31 25 31 25 29Z M27 29 L 27 31 33 31 33 29Z M35 29 L 35 31 37 31 37 29Z M39 29 L 39 31 41 31 41 29Z M43 29 L 43 31 45 31 45 29Z M57 29 L 57 31 61 31 61 29Z M63 29 L 63 31 75 31 75 29Z M77 29 L 77 31 81 31 81 29Z M83 29 L 83 31 85 31 85 29Z M87 29 L 87 31 93 31 93 29Z M95 29 L 95 31 97 31 97 29Z M23 31 L 23 33 25 33 25 31Z M27 31 L 27 33 33 33 33 31Z M35 31 L 35 33 37 33 37 31Z M45 31 L 45 33 49 33 49 31Z M55 31 L 55 33 67 33 67 31Z M69 31 L 69 33 71 33 71 31Z M73 31 L 73 33 75 33 75 31Z M79 31 L 79 33 81 33 81 31Z M83 31 L 83 33 85 33 85 31Z M87 31 L 87 33 93 33 93 31Z M95 31 L 95 33 97 33 97 31Z M23 33 L 23 35 25 35 25 33Z M35 33 L 35 35 37 35 37 33Z M47 33 L 47 35 49 35 49 33Z M51 33 L 51 35 53 35 53 33Z M57 33 L 57 35 59 35 59 33Z M63 33 L 63 35 65 35 65 33Z M83 33 L 83 35 85 35 85 33Z M95 33 L 95 35 97 35 97 33Z M23 35 L 23 37 37 37 37 35Z M39 35 L 39 37 41 37 41 35Z M43 35 L 43 37 45 37 45 35Z M47 35 L 47 37 49 37 49 35Z M51 35 L 51 37 53 37 53 35Z M55 35 L 55 37 57 37 57 35Z M59 35 L 59 37 61 37 61 35Z M63 35 L 63 37 65 37 65 35Z M67 35 L 67 37 69 37 69 35Z M71 35 L 71 37 73 37 73 35Z M75 35 L 75 37 77 37 77 35Z M79 35 L 79 37 81 37 81 35Z M83 35 L 83 37 97 37 97 35Z M39 37 L 39 39 53 39 53 37Z M55 37 L 55 39 61 39 61 37Z M63 37 L 63 39 65 39 65 37Z M67 37 L 67 39 71 39 71 37Z M79 37 L 79 39 81 39 81 37Z M23 39 L 23 41 25 41 25 39Z M35 39 L 35 41 37 41 37 39Z M39 39 L 39 41 43 41 43 39Z M45 39 L 45 41 47 41 47 39Z M53 39 L 53 41 57 41 57 39Z M65 39 L 65 41 67 41 67 39Z M69 39 L 69 41 71 41 71 39Z M73 39 L 73 41 79 41 79 39Z M81 39 L 81 41 85 41 85 39Z M89 39 L 89 41 95 41 95 39Z M27 41 L 27 43 29 43 29 41Z M41 41 L 41 43 43 43 43 41Z M45 41 L 45 43 47 43 47 41Z M55 41 L 55 43 61 43 61 41Z M65 41 L 65 43 67 43 67 41Z M71 41 L 71 43 75 43 75 41Z M77 41 L 77 43 81 43 81 41Z M87 41 L 87 43 95 43 95 41Z M27 43 L 27 45 29 45 29 43Z M31 43 L 31 45 41 45 41 43Z M45 43 L 45 45 49 45 49 43Z M51 43 L 51 45 59 45 59 43Z M61 43 L 61 45 63 45 63 43Z M67 43 L 67 45 69 45 69 43Z M75 43 L 75 45 79 45 79 43Z M81 43 L 81 45 97 45 97 43Z M23 45 L 23 47 25 47 25 45Z M31 45 L 31 47 33 47 33 45Z M37 45 L 37 47 41 47 41 45Z M47 45 L 47 47 53 47 53 45Z M61 45 L 61 47 65 47 65 45Z M67 45 L 67 47 69 47 69 45Z M71 45 L 71 47 73 47 73 45Z M83 45 L 83 47 87 47 87 45Z M89 45 L 89 47 91 47 91 45Z M95 45 L 95 47 97 47 97 45Z M23 47 L 23 49 25 49 25 47Z M27 47 L 27 49 29 49 29 47Z M33 47 L 33 49 37 49 37 47Z M39 47 L 39 49 41 49 41 47Z M43 47 L 43 49 45 49 45 47Z M51 47 L 51 49 55 49 55 47Z M69 47 L 69 49 73 49 73 47Z M83 47 L 83 49 87 49 87 47Z M89 47 L 89 49 91 49 91 47Z M95 47 L 95 49 97 49 97 47Z M23 49 L 23 51 29 51 29 49Z M33 49 L 33 51 35 51 35 49Z M43 49 L 43 51 49 51 49 49Z M53 49 L 53 51 57 51 57 49Z M59 49 L 59 51 67 51 67 49Z M69 49 L 69 51 71 51 71 49Z M77 49 L 77 51 81 51 81 49Z M85 49 L 85 51 87 51 87 49Z M89 49 L 89 51 91 51 91 49Z M93 49 L 93 51 95 51 95 49Z M23 51 L 23 53 25 53 25 51Z M35 51 L 35 53 39 53 39 51Z M43 51 L 43 53 45 53 45 51Z M51 51 L 51 53 57 53 57 51Z M59 51 L 59 53 61 53 61 51Z M63 51 L 63 53 65 53 65 51Z M67 51 L 67 53 69 53 69 51Z M75 51 L 75 53 79 53 79 51Z M81 51 L 81 53 83 53 83 51Z M85 51 L 85 53 91 53 91 51Z M93 51 L 93 53 97 53 97 51Z M23 53 L 23 55 25 55 25 53Z M29 53 L 29 55 31 55 31 53Z M33 53 L 33 55 35 55 35 53Z M37 53 L 37 55 39 55 39 53Z M43 53 L 43 55 45 55 45 53Z M49 53 L 49 55 53 55 53 53Z M55 53 L 55 55 57 55 57 53Z M65 53 L 65 55 73 55 73 53Z M75 53 L 75 55 79 55 79 53Z M81 53 L 81 55 83 55 83 53Z M85 53 L 85 55 87 55 87 53Z M89 53 L 89 55 95 55 95 53Z M27 55 L 27 57 37 57 37 55Z M43 55 L 43 57 47 57 47 55Z M49 55 L 49 57 51 57 51 55Z M59 55 L 59 57 69 57 69 55Z M71 55 L 71 57 77 57 77 55Z M79 55 L 79 57 89 57 89 55Z M91 55 L 91 57 95 57 95 55Z M25 57 L 25 59 27 59 27 57Z M29 57 L 29 59 31 59 31 57Z M39 57 L 39 59 43 59 43 57Z M45 57 L 45 59 51 59 51 57Z M55 57 L 55 59 57 59 57 57Z M65 57 L 65 59 67 59 67 57Z M77 57 L 77 59 81 59 81 57Z M85 57 L 85 59 87 59 87 57Z M89 57 L 89 59 91 59 91 57Z M93 57 L 93 59 95 59 95 57Z M23 59 L 23 61 27 61 27 59Z M29 59 L 29 61 33 61 33 59Z M35 59 L 35 61 43 61 43 59Z M47 59 L 47 61 49 61 49 59Z M51 59 L 51 61 53 61 53 59Z M55 59 L 55 61 59 61 59 59Z M61 59 L 61 61 63 61 63 59Z M67 59 L 67 61 69 61 69 59Z M71 59 L 71 61 75 61 75 59Z M77 59 L 77 61 79 61 79 59Z M83 59 L 83 61 85 61 85 59Z M87 59 L 87 61 89 61 89 59Z M91 59 L 91 61 93 61 93 59Z M95 59 L 95 61 97 61 97 59Z M23 61 L 23 63 25 63 25 61Z M29 61 L 29 63 31 63 31 61Z M37 61 L 37 63 39 63 39 61Z M41 61 L 41 63 45 63 45 61Z M47 61 L 47 63 51 63 51 61Z M53 61 L 53 63 57 63 57 61Z M59 61 L 59 63 61 63 61 61Z M67 61 L 67 63 71 63 71 61Z M75 61 L 75 63 77 63 77 61Z M79 61 L 79 63 87 63 87 61Z M89 61 L 89 63 91 63 91 61Z M95 61 L 95 63 97 63 97 61Z M23 63 L 23 65 27 65 27 63Z M29 63 L 29 65 39 65 39 63Z M41 63 L 41 65 43 65 43 63Z M51 63 L 51 65 53 65 53 63Z M57 63 L 57 65 59 65 59 63Z M67 63 L 67 65 79 65 79 63Z M81 63 L 81 65 85 65 85 63Z M87 63 L 87 65 89 65 89 63Z M91 63 L 91 65 93 65 93 63Z M25 65 L 25 67 27 67 27 65Z M29 65 L 29 67 33 67 33 65Z M37 65 L 37 67 39 67 39 65Z M43 65 L 43 67 45 67 45 65Z M53 65 L 53 67 55 67 55 65Z M57 65 L 57 67 65 67 65 65Z M67 65 L 67 67 71 67 71 65Z M73 65 L 73 67 75 67 75 65Z M77 65 L 77 67 81 67 81 65Z M87 65 L 87 67 89 67 89 65Z M91 65 L 91 67 93 67 93 65Z M25 67 L 25 69 27 69 27 67Z M35 67 L 35 69 37 69 37 67Z M49 67 L 49 69 51 69 51 67Z M53 67 L 53 69 55 69 55 67Z M57 67 L 57 69 59 69 59 67Z M63 67 L 63 69 67 69 67 67Z M71 67 L 71 69 73 69 73 67Z M75 67 L 75 69 81 69 81 67Z M85 67 L 85 69 91 69 91 67Z M93 67 L 93 69 97 69 97 67Z M23 69 L 23 71 27 71 27 69Z M31 69 L 31 71 33 71 33 69Z M43 69 L 43 71 49 71 49 69Z M51 69 L 51 71 65 71 65 69Z M67 69 L 67 71 71 71 71 69Z M75 69 L 75 71 79 71 79 69Z M81 69 L 81 71 91 71 91 69Z M93 69 L 93 71 95 71 95 69Z M23 71 L 23 73 25 73 25 71Z M27 71 L 27 73 29 73 29 71Z M31 71 L 31 73 33 73 33 71Z M35 71 L 35 73 43 73 43 71Z M45 71 L 45 73 49 73 49 71Z M51 71 L 51 73 55 73 55 71Z M57 71 L 57 73 59 73 59 71Z M63 71 L 63 73 69 73 69 71Z M77 71 L 77 73 81 73 81 71Z M83 71 L 83 73 87 73 87 71Z M23 73 L 23 75 25 75 25 73Z M27 73 L 27 75 33 75 33 73Z M37 73 L 37 75 39 75 39 73Z M45 73 L 45 75 53 75 53 73Z M59 73 L 59 75 61 75 61 73Z M63 73 L 63 75 65 75 65 73Z M67 73 L 67 75 69 75 69 73Z M71 73 L 71 75 73 75 73 73Z M77 73 L 77 75 81 75 81 73Z M85 73 L 85 75 87 75 87 73Z M23 75 L 23 77 25 77 25 75Z M31 75 L 31 77 41 77 41 75Z M45 75 L 45 77 57 77 57 75Z M59 75 L 59 77 63 77 63 75Z M65 75 L 65 77 69 77 69 75Z M73 75 L 73 77 75 77 75 75Z M77 75 L 77 77 79 77 79 75Z M81 75 L 81 77 83 77 83 75Z M85 75 L 85 77 87 77 87 75Z M89 75 L 89 77 97 77 97 75Z M23 77 L 23 79 25 79 25 77Z M29 77 L 29 79 35 79 35 77Z M37 77 L 37 79 39 79 39 77Z M43 77 L 43 79 51 79 51 77Z M55 77 L 55 79 57 79 57 77Z M61 77 L 61 79 63 79 63 77Z M71 77 L 71 79 73 79 73 77Z M75 77 L 75 79 77 79 77 77Z M81 77 L 81 79 85 79 85 77Z M89 77 L 89 79 93 79 93 77Z M23 79 L 23 81 25 81 25 79Z M27 79 L 27 81 29 81 29 79Z M33 79 L 33 81 41 81 41 79Z M43 79 L 43 81 45 81 45 79Z M47 79 L 47 81 49 81 49 79Z M53 79 L 53 81 59 81 59 79Z M61 79 L 61 81 63 81 63 79Z M67 79 L 67 81 69 81 69 79Z M71 79 L 71 81 89 81 89 79Z M91 79 L 91 81 95 81 95 79Z M39 81 L 39 83 43 83 43 81Z M45 81 L 45 83 47 83 47 81Z M49 81 L 49 83 51 83 51 81Z M53 81 L 53 83 57 83 57 81Z M61 81 L 61 83 67 83 67 81Z M69 81 L 69 83 75 83 75 81Z M77 81 L 77 83 81 83 81 81Z M87 81 L 87 83 89 83 89 81Z M23 83 L 23 85 37 85 37 83Z M45 83 L 45 85 47 85 47 83Z M49 83 L 49 85 55 85 55 83Z M57 83 L 57 85 65 85 65 83Z M69 83 L 69 85 71 85 71 83Z M73 83 L 73 85 75 85 75 83Z M79 83 L 79 85 81 85 81 83Z M83 83 L 83 85 85 85 85 83Z M87 83 L 87 85 89 85 89 83Z M93 83 L 93 85 97 85 97 83Z M23 85 L 23 87 25 87 25 85Z M35 85 L 35 87 37 87 37 85Z M43 85 L 43 87 53 87 53 85Z M63 85 L 63 87 67 87 67 85Z M69 85 L 69 87 73 87 73 85Z M77 85 L 77 87 81 87 81 85Z M87 85 L 87 87 89 87 89 85Z M23 87 L 23 89 25 89 25 87Z M27 87 L 27 89 33 89 33 87Z M35 87 L 35 89 37 89 37 87Z M41 87 L 41 89 49 89 49 87Z M53 87 L 53 89 55 89 55 87Z M59 87 L 59 89 61 89 61 87Z M63 87 L 63 89 73 89 73 87Z M77 87 L 77 89 89 89 89 87Z M91 87 L 91 89 93 89 93 87Z M23 89 L 23 91 25 91 25 89Z M27 89 L 27 91 33 91 33 89Z M35 89 L 35 91 37 91 37 89Z M63 89 L 63 91 69 91 69 89Z M73 89 L 73 91 79 91 79 89Z M81 89 L 81 91 85 91 85 89Z M89 89 L 89 91 95 91 95 89Z M23 91 L 23 93 25 93 25 91Z M27 91 L 27 93 33 93 33 91Z M35 91 L 35 93 37 93 37 91Z M41 91 L 41 93 43 93 43 91Z M47 91 L 47 93 49 93 49 91Z M63 91 L 63 93 65 93 65 91Z M67 91 L 67 93 73 93 73 91Z M79 91 L 79 93 81 93 81 91Z M89 91 L 89 93 93 93 93 91Z M95 91 L 95 93 97 93 97 91Z M23 93 L 23 95 25 95 25 93Z M35 93 L 35 95 37 95 37 93Z M41 93 L 41 95 43 95 43 93Z M47 93 L 47 95 49 95 49 93Z M51 93 L 51 95 57 95 57 93Z M59 93 L 59 95 61 95 61 93Z M69 93 L 69 95 71 95 71 93Z M75 93 L 75 95 77 95 77 93Z M79 93 L 79 95 83 95 83 93Z M87 93 L 87 95 91 95 91 93Z M95 93 L 95 95 97 95 97 93Z M23 95 L 23 97 37 97 37 95Z M39 95 L 39 97 41 97 41 95Z M45 95 L 45 97 47 97 47 95Z M49 95 L 49 97 51 97 51 95Z M55 95 L 55 97 57 97 57 95Z M61 95 L 61 97 65 97 65 95Z M71 95 L 71 97 73 97 73 95Z M79 95 L 79 97 83 97 83 95Z M85 95 L 85 97 87 97 87 95Z M89 95 L 89 97 91 97 91 95Z M95 95 L 95 97 97 97 97 95Z"
                                                                                                                                                                                                                                                                                                                 stroke="none" fill="#000"></path></g></svg>
